<svg width="159" height="33" viewBox="0 0 159 33" fill="none" xmlns="http://www.w3.org/2000/svg">
<g clip-path="url(#clip0_272_110)">
<path d="M96.2662 32.9943H78.9504V4.12769H85.4964V27.719H96.2662V32.9943ZM99.7271 32.9943V4.12769H110.026C120.35 4.12769 125.515 8.8181 125.518 18.1989C125.518 22.6962 124.109 26.2855 121.289 28.9668C118.469 31.6481 114.715 32.9906 110.026 32.9943H99.7271ZM106.273 9.41972V27.719H109.521C112.359 27.719 114.586 26.8723 116.201 25.1788C117.817 23.4854 118.625 21.1847 118.625 18.2769C118.625 15.5251 117.823 13.3618 116.218 11.7872C114.614 10.2126 112.37 9.42343 109.487 9.41972H106.273ZM64.2541 4.12769H56.4853L50.0908 21.5803L45.9006 32.9943H53.002L55.0493 26.5715H65.3872L67.457 32.9943H74.6032L64.2541 4.12769ZM56.446 21.5803L60.165 10.0826C60.4679 10.9795 60.7259 11.6702 60.7652 11.8763L63.8895 21.5803H56.446Z" fill="white"/>
<path d="M131.554 13.0853V18.5333H129.871V4.12779H133.854C135.155 4.04162 136.443 4.43867 137.466 5.2419C137.902 5.64484 138.242 6.13844 138.463 6.68736C138.684 7.23629 138.781 7.82697 138.745 8.41712C138.763 9.04316 138.645 9.66571 138.399 10.2425C138.153 10.8192 137.785 11.3366 137.32 11.7595C136.258 12.6692 134.884 13.1362 133.483 13.063L131.554 13.0853ZM131.554 5.65413V11.5589H133.332C134.295 11.6272 135.251 11.3439 136.019 10.7623C136.332 10.4782 136.578 10.1283 136.738 9.73803C136.898 9.34777 136.969 8.92697 136.944 8.50625C136.944 6.60112 135.823 5.65413 133.545 5.65413H131.554ZM146.699 9.45882C146.309 9.20537 145.846 9.0842 145.381 9.11344C145.006 9.11924 144.639 9.21811 144.313 9.40105C143.986 9.58398 143.711 9.84514 143.513 10.1607C142.972 11.0093 142.711 12.0044 142.767 13.0073V18.5221H141.022V7.70966H142.767V9.93789H142.806C143.003 9.25024 143.392 8.6321 143.928 8.15531C144.395 7.75201 144.992 7.52691 145.611 7.52026C145.964 7.50599 146.318 7.55505 146.654 7.6651L146.699 9.45882ZM153.576 18.7728C152.863 18.8069 152.151 18.6904 151.487 18.4312C150.822 18.1719 150.221 17.7757 149.722 17.2687C148.728 16.1706 148.21 14.7274 148.281 13.2524C148.281 11.4364 148.78 10.0177 149.778 8.99646C150.311 8.47685 150.947 8.07248 151.645 7.80883C152.343 7.54517 153.088 7.42795 153.834 7.46456C154.535 7.42641 155.236 7.53905 155.89 7.79478C156.543 8.05051 157.134 8.4433 157.62 8.94633C158.586 10.1003 159.073 11.5762 158.983 13.0741C159.057 14.5932 158.53 16.0808 157.514 17.2186C157.005 17.7391 156.391 18.1467 155.712 18.4146C155.034 18.6825 154.305 18.8045 153.576 18.7728ZM153.694 8.9129C153.194 8.88717 152.696 8.97405 152.235 9.167C151.775 9.35996 151.365 9.65399 151.035 10.027C150.339 10.9191 149.992 12.0313 150.059 13.1577C149.995 14.2549 150.347 15.336 151.046 16.1881C151.377 16.5564 151.786 16.8474 152.244 17.04C152.702 17.2327 153.197 17.3222 153.694 17.3022C154.182 17.331 154.671 17.2481 155.122 17.0598C155.573 16.8714 155.975 16.5827 156.296 16.2159C156.955 15.3207 157.276 14.2248 157.205 13.1187C157.272 12.0164 156.955 10.9248 156.308 10.027C155.989 9.65291 155.586 9.35753 155.133 9.16418C154.679 8.97084 154.186 8.88482 153.694 8.9129Z" fill="#FC5D2B"/>
<path d="M35.3383 4.12779H33.2629C33.2599 3.5737 33.0366 3.04323 32.6416 2.65195C32.2465 2.26067 31.7118 2.04029 31.1538 2.03883H7.29203C6.60341 2.03662 5.92115 2.16969 5.28451 2.43038C4.64788 2.69107 4.06945 3.07423 3.58251 3.5578C3.09558 4.04138 2.70976 4.61582 2.44726 5.24806C2.18476 5.8803 2.05077 6.55786 2.05299 7.24173V20.6111C2.0515 21.1656 2.2715 21.6981 2.66477 22.0918C3.05804 22.4855 3.59246 22.7082 4.15085 22.7112V24.75C3.04889 24.7441 1.994 24.3056 1.21636 23.5302C0.438723 22.7548 0.00146523 21.7055 0 20.6111L0 7.24173C0 5.32111 0.768266 3.47914 2.13579 2.12106C3.50331 0.762969 5.35807 3.82476e-06 7.29203 3.82476e-06H31.1538C32.2592 -0.00148553 33.3202 0.432041 34.1045 1.20568C34.8887 1.97931 35.3324 3.03002 35.3383 4.12779Z" fill="#FC5D2B"/>
<path d="M29.0779 32.9999H14.5387C14.4023 33.0005 14.2671 32.9742 14.141 32.9226C14.0149 32.8709 13.9003 32.795 13.8039 32.6991C13.611 32.5044 13.5023 32.2425 13.501 31.9693C13.5025 31.6965 13.6123 31.4352 13.8066 31.2423C14.0009 31.0493 14.264 30.9403 14.5387 30.9388H29.0779C29.3527 30.9403 29.6158 31.0493 29.8101 31.2423C30.0044 31.4352 30.1142 31.6965 30.1156 31.9693C30.1144 32.2425 30.0057 32.5044 29.8127 32.6991C29.7164 32.795 29.6018 32.8709 29.4757 32.9226C29.3495 32.9742 29.2144 33.0005 29.0779 32.9999ZM35.3379 6.16094H8.30685C7.74898 6.16094 7.21395 6.38103 6.81947 6.77278C6.42499 7.16454 6.20338 7.69587 6.20338 8.2499V24.7555C6.20486 25.3085 6.42713 25.8384 6.82145 26.229C7.21577 26.6195 7.74995 26.8389 8.30685 26.8389H35.3379C35.8948 26.8389 36.4289 26.6195 36.8233 26.229C37.2176 25.8384 37.4398 25.3085 37.4413 24.7555V8.2499C37.4413 7.69587 37.2197 7.16454 36.8252 6.77278C36.4308 6.38103 35.8957 6.16094 35.3379 6.16094ZM35.3379 4.12769C36.4388 4.12916 37.4943 4.56375 38.2733 5.33634C39.0523 6.10893 39.4914 7.15656 39.4943 8.2499V24.7555C39.4914 25.8488 39.0523 26.8964 38.2733 27.669C37.4943 28.4416 36.4388 28.8762 35.3379 28.8777H8.30685C7.20591 28.8762 6.15041 28.4416 5.37141 27.669C4.5924 26.8964 4.15336 25.8488 4.15039 24.7555V8.2499C4.15336 7.15656 4.5924 6.10893 5.37141 5.33634C6.15041 4.56375 7.20591 4.12916 8.30685 4.12769H35.3379ZM12.1436 24.7388H16.2047L10.0962 11.7983L18.8971 24.7499H22.2627L14.7575 8.77353L25.5834 24.7499H28.2814L20.5575 8.2499H9.61381C9.26867 8.2499 8.93767 8.38606 8.69362 8.62843C8.44957 8.87079 8.31246 9.19951 8.31246 9.54227V19.1292L12.1436 24.7388ZM35.3379 19.5804V9.55341C35.3379 9.21065 35.2008 8.88193 34.9567 8.63957C34.7127 8.3972 34.3817 8.26104 34.0365 8.26104H27.642L35.3379 19.5804ZM26.5313 8.2499H21.0791L32.2584 24.7499H34.0197C34.0925 24.7554 34.1656 24.7554 34.2384 24.7499L26.5313 8.2499ZM8.31246 20.9953V23.4575C8.31246 23.8003 8.44957 24.129 8.69362 24.3714C8.93767 24.6137 9.26867 24.7499 9.61381 24.7499H10.0962L8.31246 20.9953Z" fill="white"/>
</g>
<defs>
<clipPath id="clip0_272_110">
<rect width="159" height="33" fill="white"/>
</clipPath>
</defs>
</svg>
